<?xml version="1.0" encoding="UTF-8"?>
<svg xmlns="http://www.w3.org/2000/svg" viewBox="0 0 1600 1000" role="img" aria-labelledby="title desc">
  <title>Pockito – Recurring Subscriptions</title>
  <desc>Calendar with subscription tiles and due indicators.</desc>
  <defs>
    <linearGradient id="bg" x1="0" y1="0" x2="1" y2="1">
      <stop offset="0" stop-color="#4F46E5"/>
      <stop offset="1" stop-color="#06B6D4"/>
    </linearGradient>
    <linearGradient id="panel" x1="0" y="0" x2="1" y2="1">
      <stop offset="0" stop-color="#ffffff"/>
      <stop offset="1" stop-color="#f6fbff"/>
    </linearGradient>
    <filter id="s" x="-20%" y="-20%" width="140%" height="140%">
      <feDropShadow dx="0" dy="8" stdDeviation="12" flood-color="#000" flood-opacity="0.1"/>
    </filter>
    <style>
      .caption { font: 700 42px 'Inter', ui-sans-serif, system-ui; fill: #0F172A; }
      .muted   { font: 500 24px 'Inter', ui-sans-serif, system-ui; fill: #64748b; }
      .chip    { font: 700 20px 'Inter', ui-sans-serif, system-ui; fill: #0F172A; }
    </style>
  </defs>

  <rect x="0" y="0" width="1600" height="1000" fill="url(#bg)"/>
  <g opacity=".08">
    <circle cx="140" cy="140" r="6" fill="#FFFFFF"/>
    <circle cx="220" cy="260" r="4" fill="#FFFFFF"/>
    <circle cx="460" cy="180" r="5" fill="#FFFFFF"/>
    <circle cx="1240" cy="180" r="6" fill="#FFFFFF"/>
    <circle cx="1320" cy="320" r="4" fill="#FFFFFF"/>
    <circle cx="1180" cy="820" r="5" fill="#FFFFFF"/>
    <circle cx="280" cy="780" r="6" fill="#FFFFFF"/>
  </g>

  
    <g filter="url(#s)">
      <rect x="200" y="220" width="560" height="420" rx="28" fill="url(#panel)"/>
      <rect x="200" y="220" width="560" height="80" rx="28" fill="#eef2ff"/>
      <text class="caption" x="230" y="280">Subscriptions</text>
      <g transform="translate(230,330)">
        <rect x="0" y="0" width="240" height="100" rx="18" fill="#ecfeff"/>
        <circle cx="40" cy="50" r="18" fill="#FBBF24"/>
        <text class="chip" x="70" y="58">Netflix</text>

        <rect x="270" y="0" width="240" height="100" rx="18" fill="#fef3c7"/>
        <circle cx="310" cy="50" r="18" fill="#FBBF24"/>
        <text class="chip" x="340" y="58">Gym</text>

        <rect x="0" y="130" width="240" height="100" rx="18" fill="#e0f2fe"/>
        <circle cx="40" cy="180" r="18" fill="#FBBF24"/>
        <text class="chip" x="70" y="188">Internet</text>

        <rect x="270" y="130" width="240" height="100" rx="18" fill="#f1f5f9"/>
        <circle cx="310" cy="180" r="18" fill="#FBBF24"/>
        <text class="chip" x="340" y="188">Utilities</text>
      </g>
    </g>

    <g filter="url(#s)">
      <rect x="820" y="240" width="600" height="380" rx="28" fill="url(#panel)"/>
      <text class="caption" x="860" y="300">This Month</text>
      <g transform="translate(860,320)" fill="#e2e8f0">
        <rect x="0" y="0" width="70" height="50" rx="10"/><rect x="78" y="0" width="70" height="50" rx="10"/><rect x="156" y="0" width="70" height="50" rx="10"/><rect x="234" y="0" width="70" height="50" rx="10"/><rect x="312" y="0" width="70" height="50" rx="10"/><rect x="390" y="0" width="70" height="50" rx="10"/><rect x="468" y="0" width="70" height="50" rx="10"/><rect x="0" y="60" width="70" height="50" rx="10"/><rect x="78" y="60" width="70" height="50" rx="10"/><rect x="156" y="60" width="70" height="50" rx="10"/><rect x="234" y="60" width="70" height="50" rx="10"/><rect x="312" y="60" width="70" height="50" rx="10"/><rect x="390" y="60" width="70" height="50" rx="10"/><rect x="468" y="60" width="70" height="50" rx="10"/><rect x="0" y="120" width="70" height="50" rx="10"/><rect x="78" y="120" width="70" height="50" rx="10"/><rect x="156" y="120" width="70" height="50" rx="10"/><rect x="234" y="120" width="70" height="50" rx="10"/><rect x="312" y="120" width="70" height="50" rx="10"/><rect x="390" y="120" width="70" height="50" rx="10"/><rect x="468" y="120" width="70" height="50" rx="10"/><rect x="0" y="180" width="70" height="50" rx="10"/><rect x="78" y="180" width="70" height="50" rx="10"/><rect x="156" y="180" width="70" height="50" rx="10"/><rect x="234" y="180" width="70" height="50" rx="10"/><rect x="312" y="180" width="70" height="50" rx="10"/><rect x="390" y="180" width="70" height="50" rx="10"/><rect x="468" y="180" width="70" height="50" rx="10"/>
      </g>
      <g fill="#FBBF24">
        <circle cx="938" cy="382" r="10"/><circle cx="1094" cy="504" r="10"/><circle cx="1248" cy="444" r="10"/>
      </g>
    </g>
    
</svg>
