<?xml version="1.0" encoding="UTF-8"?>
<svg xmlns="http://www.w3.org/2000/svg" viewBox="0 0 256 256" role="img" aria-labelledby="title desc">
  <title>Pockito – Tailwind/Material Mark</title>
  <desc>Rounded square gradient with a filled wallet icon and subtle elevation.</desc>
  <defs>
    <linearGradient id="bg" x1="0" y1="0" x2="1" y2="1">
      <stop offset="0" stop-color="#4F46E5"/>
      <stop offset="1" stop-color="#06B6D4"/>
    </linearGradient>
    <linearGradient id="shine" x1="0" y1="0" x2="0" y2="1">
      <stop offset="0" stop-color="#FFFFFF" stop-opacity=".35"/>
      <stop offset=".6" stop-color="#FFFFFF" stop-opacity="0"/>
    </linearGradient>
    <filter id="elev" x="-20%" y="-20%" width="140%" height="140%">
      <feDropShadow dx="0" dy="8" stdDeviation="10" flood-color="#000" flood-opacity="0.12"/>
    </filter>
  </defs>

  <!-- Scale the 128x128 design up to fill 256x256 -->
  <g transform="scale(2)">
    <rect x="0" y="0" width="128" height="128" rx="28" fill="url(#bg)"/>
    <path d="M28 64 a14 14 0 0 1 14-14 h68 a14 14 0 0 1 14 14 v28 a20 20 0 0 1-20 20 H48 a20 20 0 0 1-20-20 z"
          fill="#FFFFFF" opacity="0.98"/>
    <path d="M42 50 h64 a12 12 0 0 1 12 12 v6 h-88 v-6 a12 12 0 0 1 12-12z"
          fill="#FFFFFF" opacity="0.98"/>
    <circle cx="102" cy="78" r="9" fill="#FBBF24"/>
    <circle cx="102" cy="78" r="9" fill="none" stroke="#FFFFFF" stroke-width="2.5" opacity=".9"/>
  </g>
</svg>
