<?xml version="1.0" encoding="UTF-8"?>
<svg xmlns="http://www.w3.org/2000/svg" viewBox="0 0 380 160" role="img" aria-labelledby="title desc">
  <title>Pockito – Horizontal (Dark, Tailwind/Material)</title>
  <desc>Rounded square mark with filled wallet; wordmark for dark backgrounds.</desc>
  <defs>
    <linearGradient id="bg" x1="0" y1="0" x2="1" y2="1">
      <stop offset="0" stop-color="#4F46E5"/>
      <stop offset="1" stop-color="#06B6D4"/>
    </linearGradient>
  </defs>

  <!-- Mark (scaled to fill its box, no wasted translate) -->
  <g>
    <rect x="0" y="16" width="128" height="128" rx="28" fill="url(#bg)"/>
    <path d="M28 80 a14 14 0 0 1 14-14 h68 a14 14 0 0 1 14 14 v28 a20 20 0 0 1-20 20 H48 a20 20 0 0 1-20-20 z"
          fill="#FFFFFF" opacity="0.98"/>
    <path d="M42 66 h64 a12 12 0 0 1 12 12 v6 h-88 v-6 a12 12 0 0 1 12-12z"
          fill="#FFFFFF" opacity="0.98"/>
    <circle cx="102" cy="94" r="9" fill="#FBBF24"/>
    <circle cx="102" cy="94" r="9" fill="none" stroke="#FFFFFF" stroke-width="2.5" opacity=".9"/>
  </g>

  <!-- Wordmark aligned closer -->
  <g transform="translate(156,62)">
    <style>
      .t{font:700 62px 'Inter', ui-sans-serif, system-ui, -apple-system, 'Segoe UI', Roboto, 'Helvetica Neue', Arial; fill:#FFFFFF; letter-spacing:.2px}
    </style>
    <text class="t" x="0" y="60">Pockito</text>
    <!-- i-dot coin now positioned relative to font -->
    <circle cx="215" cy="20" r="7" fill="#FBBF24"/>
  </g>
</svg>
